SplineFontDB: 3.0
FontName: Renner*-Bold-Italic
FullName: Renner* Bold Italic
FamilyName: Renner*
Weight: Bold
Copyright: This typeface is licensed under the SIL open font license.
UComments: "2015-9-7: Created with FontForge (http://fontforge.org)"
FontLog: "This is version 1. Font is original (not based on another digital typeface). Inspiration was taken from the American Type Founders +ACIA-Spartan+ACIA, but Renner* is not identical. No updates have been made yet."
Version: 001.000
ItalicAngle: -8
UnderlinePosition: -200
UnderlineWidth: 50
Ascent: 800
Descent: 200
InvalidEm: 0
LayerCount: 2
Layer: 0 0 "Back" 1
Layer: 1 0 "Fore" 0
XUID: [1021 266 -223186452 810138]
FSType: 0
OS2Version: 0
OS2_WeightWidthSlopeOnly: 0
OS2_UseTypoMetrics: 0
CreationTime: 1441634143
ModificationTime: 1452979803
PfmFamily: 17
TTFWeight: 700
TTFWidth: 5
LineGap: 100
VLineGap: 0
OS2TypoAscent: 800
OS2TypoAOffset: 0
OS2TypoDescent: -200
OS2TypoDOffset: 0
OS2TypoLinegap: 100
OS2WinAscent: 900
OS2WinAOffset: 0
OS2WinDescent: 300
OS2WinDOffset: 0
HheadAscent: 900
HheadAOffset: 0
HheadDescent: -200
HheadDOffset: 0
OS2CapHeight: 730
OS2XHeight: 526
OS2Vendor: 'PfEd'
Lookup: 258 0 0 "Pairwise Positioning (kerning) in Latin lookup 0" { "Pairwise Positioning (kerning) in Latin lookup 0-1" [140,0,0] } ['kern' ('DFLT' <'dflt' > 'latn' <'dflt' > ) ]
MarkAttachClasses: 1
DEI: 91125
KernClass2: 11 13 "Pairwise Positioning (kerning) in Latin lookup 0-1"
 5 A M L
 7 D O Q G
 9 F V P Y W
 7 b e o p
 3 K X
 1 T
 19 a c g h i j m n q u
 3 k x
 7 r v y w
 1 s
 3 A M
 7 C G O Q
 1 T
 3 V W
 3 X Y
 13 c d e g o q a
 3 i j
 11 m n p r u z
 1 s
 5 v w y
 1 x
 1 U

StartChar: I
Encoding: 73 73 0
Width: 288
VWidth: 0
Flags: W
HStem: 0 21G<76 214.822> 710 20G<176.178 315>
VStem: 76 239
DStem2: 76 0 212 0 0.139712 0.990192<19.0008 737.231>
LayerCount: 2
Fore
SplineSet
76 0 m 1
 179 730 l 1
 315 730 l 5
 212 0 l 5
 76 0 l 1
EndSplineSet
EndChar

StartChar: t
Encoding: 116 116 1
Width: 317
VWidth: 0
Flags: HW
LayerCount: 2
Fore
SplineSet
65 395 m 5
 83 526 l 1
 376 526 l 1
 358 395 l 5
 65 395 l 5
88 0 m 1
 186 700 l 1
 323 700 l 1
 224 0 l 1
 88 0 l 1
EndSplineSet
EndChar

StartChar: l
Encoding: 108 108 2
Width: 311
VWidth: 0
Flags: HW
LayerCount: 2
Fore
SplineSet
66 0 m 1
 192 894 l 5
 329 894 l 5
 204 0 l 1
 66 0 l 1
EndSplineSet
EndChar

StartChar: i
Encoding: 105 105 3
Width: 345
VWidth: 0
Flags: W
HStem: 0 21G<84 222.814> 506 20G<155.186 294> 641 171<206.616 301.856>
VStem: 169 171<678.695 774.988>
LayerCount: 2
Fore
SplineSet
169 727 m 4
 176 775 219 812 267 812 c 4
 315 812 347 775 340 727 c 4
 333 679 291 641 243 641 c 4
 195 641 162 679 169 727 c 4
84 0 m 1
 158 526 l 1
 294 526 l 1
 220 0 l 1
 84 0 l 1
EndSplineSet
EndChar

StartChar: o
Encoding: 111 111 4
Width: 626
VWidth: 0
Flags: W
HStem: -12 131<253.152 392.754> 407 131<288.056 427.695>
LayerCount: 2
Fore
SplineSet
203 263 m 4
 192 185 245 119 320 119 c 4
 395 119 466 185 477 263 c 4
 488 341 436 407 361 407 c 4
 286 407 214 341 203 263 c 4
65 263 m 0
 86 414 228 538 379 538 c 0
 530 538 636 414 615 263 c 0
 594 112 453 -12 302 -12 c 0
 151 -12 44 112 65 263 c 0
EndSplineSet
EndChar

StartChar: H
Encoding: 72 72 6
Width: 748
VWidth: 0
Flags: HW
LayerCount: 2
Fore
SplineSet
242 302 m 5xea
 261 433 l 1
 618 433 l 1
 599 302 l 5
 242 302 l 5xea
536 0 m 1xe4
 639 730 l 1
 775 730 l 1
 672 0 l 1
 536 0 l 1xe4
76 0 m 1xf0
 179 730 l 1
 315 730 l 1
 212 0 l 1
 76 0 l 1xf0
EndSplineSet
EndChar

StartChar: E
Encoding: 69 69 7
Width: 617
VWidth: 0
Flags: W
HStem: 0 131<209 570> 311 125<252 505> 599 131<305 654>
DStem2: 66 0 190 0 0.139712 0.990192<17.3243 149.694 331.421 457.71 622.325 737.231>
LayerCount: 2
Fore
SplineSet
190 0 m 1
 209 131 l 1
 588 131 l 1
 570 0 l 1
 190 0 l 1
275 599 m 1
 293 730 l 1
 672 730 l 1
 654 599 l 1
 275 599 l 1
234 311 m 1
 252 436 l 5
 523 436 l 5
 505 311 l 1
 234 311 l 1
66 0 m 1
 169 730 l 1
 305 730 l 1
 202 0 l 1
 66 0 l 1
EndSplineSet
EndChar

StartChar: F
Encoding: 70 70 8
Width: 595
VWidth: 0
Flags: HW
LayerCount: 2
Fore
SplineSet
276 610 m 5xe8
 293 730 l 1
 650 730 l 1
 633 610 l 5
 276 610 l 5xe8
235 314 m 1
 251 433 l 1
 500 433 l 1
 484 314 l 1
 235 314 l 1
66 0 m 1xf0
 169 730 l 1xf0
 305 730 l 1xe8
 202 0 l 1
 66 0 l 1xf0
EndSplineSet
EndChar

StartChar: M
Encoding: 77 77 9
Width: 841
VWidth: 0
Flags: HW
LayerCount: 2
Fore
SplineSet
421 -0 m 1
 282 563 l 1
 350 757 l 1
 490 183 l 1
 421 -0 l 1
10 -0 m 1
 350 757 l 1
 396 533 l 1
 151 -0 l 1
 10 -0 l 1
690 -0 m 1
 723 546 l 1
 832 757 l 1
 832 -0 l 1
 690 -0 l 1
397 186 m 1
 832 757 l 1
 825 539 l 5
 421 -0 l 1
 397 186 l 1
EndSplineSet
EndChar

StartChar: N
Encoding: 78 78 10
Width: 802
VWidth: 0
Flags: W
HStem: 0 21G<76 215.819 707.417 728.822> 730 7G<176.178 200.742 690.181 829>
LayerCount: 2
Fore
SplineSet
722 -27 m 1
 157 577 l 1
 182 757 l 1
 748 153 l 1
 722 -27 l 1
608 127 m 5
 693 730 l 1
 829 730 l 1
 726 0 l 1
 608 127 l 5
76 0 m 1
 179 730 l 1
 298 603 l 1
 213 0 l 1
 76 0 l 1
EndSplineSet
EndChar

StartChar: O
Encoding: 79 79 11
Width: 810
VWidth: 0
Flags: W
HStem: -11 137<336.423 528.566> 606 136<387.58 587.048>
LayerCount: 2
Fore
SplineSet
222 366 m 4
 202 226 297 126 433 126 c 4
 569 126 682 226 702 366 c 4
 722 506 627 606 491 606 c 4
 355 606 242 506 222 366 c 4
80 366 m 4
 109 574 302 742 510 742 c 4
 718 742 862 574 833 366 c 4
 804 158 612 -11 404 -11 c 4
 196 -11 51 158 80 366 c 4
EndSplineSet
EndChar

StartChar: T
Encoding: 84 84 12
Width: 599
VWidth: 0
Flags: HW
LayerCount: 2
Fore
SplineSet
94 599 m 5xd0
 112 730 l 1
 692 730 l 1
 674 599 l 5
 94 599 l 5xd0
232 0 m 1
 322 642 l 5
 458 642 l 5xb0
 368 0 l 1
 232 0 l 1
EndSplineSet
EndChar

StartChar: A
Encoding: 65 65 13
Width: 711
VWidth: 0
Flags: W
HStem: 0 21G<10 163.27 554.304 702> 152 129<227 566> 737 20G<450.058 468.341>
LayerCount: 2
Fore
SplineSet
10 0 m 1
 462 757 l 1
 498 614 l 1
 152 0 l 1
 10 0 l 1
209 152 m 5
 227 281 l 1
 584 281 l 1
 566 152 l 5
 209 152 l 5
560 0 m 1
 384 618 l 1
 462 757 l 1
 702 0 l 1
 560 0 l 1
EndSplineSet
EndChar

StartChar: c
Encoding: 99 99 14
Width: 536
VWidth: 0
Flags: W
HStem: -12 131<256.597 433.705> 407 130<287.805 467.846>
LayerCount: 2
Fore
SplineSet
208 263 m 4
 197 185 243 119 325 119 c 4
 381 119 442 136 488 172 c 5
 468 24 l 5
 417 0 361 -12 307 -12 c 4
 156 -12 49 112 70 263 c 4
 91 414 233 537 384 537 c 4
 438 537 490 526 535 502 c 5
 514 354 l 5
 478 390 421 407 365 407 c 4
 283 407 219 341 208 263 c 4
EndSplineSet
EndChar

StartChar: C
Encoding: 67 67 15
Width: 680
VWidth: 0
Flags: W
HStem: -11 137<328.523 535.653> 539 21G<663.5 691.897> 606 135<392.967 612.505>
LayerCount: 2
Fore
SplineSet
222 366 m 0
 203 232 290 126 423 126 c 4
 500 126 577 148 640 192 c 1
 620 47 l 1
 552 10 478 -11 404 -11 c 0
 196 -11 51 158 80 366 c 0
 109 574 302 741 510 741 c 0
 584 741 652 721 710 684 c 1
 689 539 l 1
 638 583 568 606 491 606 c 4
 359 606 241 500 222 366 c 0
EndSplineSet
EndChar

StartChar: G
Encoding: 71 71 16
Width: 818
VWidth: 0
Flags: HW
LayerCount: 2
Fore
SplineSet
472 281 m 5
 490 406 l 1
 817 406 l 1
 789 281 l 5
 472 281 l 5
222 366 m 0
 202 222 281 126 423 126 c 0
 565 126 660 222 680 366 c 0
 681 372 685 400 686 406 c 1
 827 406 l 1
 826 400 823 372 822 366 c 0
 793 158 612 -11 404 -11 c 0
 196 -11 51 158 80 366 c 0
 109 574 302 742 510 742 c 0
 610 742 695 703 753 639 c 1
 664 532 l 1
 620 580 557 606 491 606 c 0
 349 606 242 510 222 366 c 0
EndSplineSet
EndChar

StartChar: J
Encoding: 74 74 17
Width: 533
VWidth: 0
Flags: HW
LayerCount: 2
Fore
SplineSet
356 249 m 1
 424 730 l 1
 560 730 l 1
 492 249 l 1
 356 249 l 1
356 249 m 1
 492 249 l 1
 471 101 366 -11 202 -11 c 0
 74 -11 5 54 -10 134 c 1
 89 210 l 1
 108 165 139 120 220 120 c 0
 321 120 344 167 356 249 c 1
EndSplineSet
EndChar

StartChar: b
Encoding: 98 98 18
Width: 681
VWidth: 0
Flags: HW
LayerCount: 2
Fore
SplineSet
66 0 m 1x7a
 192 894 l 5
 329 894 l 5x7a
 204 0 l 1x76
 66 0 l 1x7a
240 263 m 0
 229 185 276 119 358 119 c 0xba
 440 119 504 185 515 263 c 0
 526 341 481 407 399 407 c 0
 317 407 251 341 240 263 c 0
184 263 m 0xb6
 201 384 289 538 439 538 c 0
 569 538 674 414 653 263 c 0
 632 112 492 -12 362 -12 c 0
 212 -12 167 142 184 263 c 0xb6
EndSplineSet
EndChar

StartChar: u
Encoding: 117 117 19
Width: 688
VWidth: 0
Flags: W
HStem: -12 131<255.78 362.935> 0 21G<442 582.814> 506 20G<137.214 277 513.186 654>
DStem2: 95 203 232 203 0.137986 0.990434<-30.5092 326.12> 442 0 580 0 0.139313 0.990248<271.72 531.18>
LayerCount: 2
Fore
SplineSet
654 526 m 1x60
 580 0 l 1
 442 0 l 1
 516 526 l 1
 654 526 l 1x60
232 203 m 1
 95 203 l 1
 140 526 l 1
 277 526 l 1
 232 203 l 1
232 203 m 1
 225 154 265 119 322 119 c 0
 409 119 465 160 479 263 c 1
 523 263 l 5
 510 171 438 -12 272 -12 c 0xa0
 152 -12 76 69 95 203 c 1
 232 203 l 1
EndSplineSet
EndChar

StartChar: d
Encoding: 100 100 20
Width: 682
VWidth: 0
Flags: HW
LayerCount: 2
Fore
SplineSet
483 263 m 4xbc
 494 341 447 407 365 407 c 4
 283 407 219 341 208 263 c 4
 197 185 243 119 325 119 c 4
 407 119 472 185 483 263 c 4xbc
539 263 m 4xba
 522 142 435 -12 285 -12 c 4
 155 -12 49 112 70 263 c 4
 91 414 232 538 362 538 c 4
 512 538 556 384 539 263 c 4xba
584 0 m 5x7c
 446 0 l 5x7a
 572 894 l 5
 710 894 l 5
 584 0 l 5x7c
EndSplineSet
EndChar

StartChar: e
Encoding: 101 101 21
Width: 625
VWidth: 0
Flags: W
HStem: -12 131<256.597 420.54> 221 102<132 549> 239 24<70 158> 407 131<287.805 432.184>
DStem2: 70 263 117 221 0.145494 0.989359<-28.0324 68.3822>
LayerCount: 2
Fore
SplineSet
208 263 m 1xb0
 197 185 243 119 325 119 c 0
 412 119 467 169 467 169 c 1
 535 75 l 1
 471 22 387 -12 307 -12 c 0
 156 -12 49 112 70 263 c 1
 208 263 l 1xb0
70 263 m 0
 91 414 233 538 384 538 c 0
 535 538 629 414 608 263 c 0xb0
 605 243 598 221 598 221 c 5
 463 221 l 5xd0
 465 229 470 255 471 263 c 0
 482 341 447 407 365 407 c 0
 283 407 219 341 208 263 c 0
 207 255 158 247 158 239 c 1
 68 239 l 1
 68 247 69 255 70 263 c 0
117 221 m 1xd0
 132 323 l 1
 564 323 l 1
 549 221 l 1
 117 221 l 1xd0
EndSplineSet
EndChar

StartChar: a
Encoding: 97 97 22
Width: 682
VWidth: 0
Flags: W
HStem: -12 131<254.536 375.153> 0 21G<446 586.814> 407 131<288.409 435.856> 506 20G<517.186 658>
DStem2: 446 0 584 0 0.139313 0.990248<273.391 531.18>
LayerCount: 2
Fore
SplineSet
483 263 m 0xa0
 494 341 447 407 365 407 c 0
 283 407 219 341 208 263 c 0
 197 185 243 119 325 119 c 0
 407 119 472 185 483 263 c 0xa0
539 263 m 0
 522 142 435 -12 285 -12 c 0
 155 -12 49 112 70 263 c 0
 91 414 232 538 362 538 c 0
 512 538 556 384 539 263 c 0
584 0 m 1x50
 446 0 l 1
 520 526 l 5
 658 526 l 5
 584 0 l 1x50
EndSplineSet
EndChar

StartChar: h
Encoding: 104 104 23
Width: 712
VWidth: 0
Flags: HW
LayerCount: 2
Fore
SplineSet
510 311 m 1xe4
 648 311 l 1
 604 0 l 1
 466 0 l 1
 510 311 l 1xe4
66 0 m 1xf4
 192 894 l 5
 329 894 l 5
 204 0 l 1
 66 0 l 1xf4
510 311 m 1
 517 360 474 407 411 407 c 0
 318 407 254 366 240 263 c 1xf4
 195 263 l 1xec
 212 385 283 538 429 538 c 0
 569 538 669 457 648 311 c 1
 510 311 l 1
EndSplineSet
EndChar

StartChar: m
Encoding: 109 109 24
Width: 1018
VWidth: 0
Flags: HW
LayerCount: 2
Fore
SplineSet
818 323 m 1x8080
 956 323 l 1
 910 0 l 1
 772 0 l 1
 818 323 l 1x8080
818 323 m 1
 825 372 783 407 734 407 c 0
 667 407 608 366 594 263 c 1x6280
 533 263 l 5
 549 375 603 538 772 538 c 0x6180
 884 538 975 457 956 323 c 1
 818 323 l 1
66 0 m 1x9880
 140 526 l 1
 278 526 l 1
 204 0 l 1
 66 0 l 1x9880
466 323 m 1x8280
 603 323 l 1x4280
 558 0 l 1
 420 0 l 1
 466 323 l 1x8280
466 323 m 1x8280
 475 384 431 407 382 407 c 0
 304 407 255 366 241 263 c 1x6a80
 207 263 l 5
 223 375 275 538 432 538 c 0
 544 538 610 457 591 323 c 1x6580
 466 323 l 1x8280
EndSplineSet
EndChar

StartChar: n
Encoding: 110 110 25
Width: 687
VWidth: 0
Flags: W
HStem: 0 21G<66 206.776 442 582.786> 407 131<357.875 464.99> 506 20G<137.186 277>
DStem2: 442 0 580 0 0.140992 0.990011<19.4569 376.082>
LayerCount: 2
Fore
SplineSet
66 0 m 1xa0
 140 526 l 1
 277 526 l 1
 204 0 l 1
 66 0 l 1xa0
488 323 m 1
 625 323 l 1
 580 0 l 1
 442 0 l 1
 488 323 l 1
488 323 m 1
 495 372 456 407 399 407 c 0
 312 407 254 366 240 263 c 1
 195 263 l 5
 209 366 283 538 449 538 c 0xc0
 569 538 644 457 625 323 c 1
 488 323 l 1
EndSplineSet
EndChar

StartChar: y
Encoding: 121 121 26
Width: 506
VWidth: 0
Flags: W
HStem: 506 20G<74 215.619 434.758 580>
LayerCount: 2
Fore
SplineSet
-11 -287 m 5
 446 526 l 1
 580 526 l 1
 124 -287 l 5
 -11 -287 l 5
211 48 m 1
 74 526 l 1
 210 526 l 1
 328 106 l 1
 211 48 l 1
EndSplineSet
EndChar

StartChar: q
Encoding: 113 113 27
Width: 677
VWidth: 0
Flags: HW
LayerCount: 2
Fore
SplineSet
478 263 m 0xd0
 489 341 443 407 361 407 c 0
 279 407 214 341 203 263 c 0
 192 185 238 119 320 119 c 0
 402 119 467 185 478 263 c 0xd0
534 263 m 0xd4
 517 142 430 -12 280 -12 c 0
 150 -12 44 112 65 263 c 0
 86 414 227 538 357 538 c 0
 507 538 551 384 534 263 c 0xd4
654 526 m 1xb8
 542 -275 l 1
 404 -275 l 1
 516 526 l 1
 654 526 l 1xb8
EndSplineSet
EndChar

StartChar: p
Encoding: 112 112 28
Width: 675
VWidth: 0
Flags: HW
LayerCount: 2
Fore
SplineSet
184 263 m 0xcc
 201 384 289 538 439 538 c 0
 569 538 674 414 653 263 c 0
 632 112 492 -12 362 -12 c 0
 212 -12 167 142 184 263 c 0xcc
140 526 m 1xb4
 277 526 l 1
 165 -275 l 1
 28 -275 l 1
 140 526 l 1xb4
240 263 m 0
 229 185 276 119 358 119 c 0
 440 119 504 185 515 263 c 0
 526 341 481 407 399 407 c 0xd4
 317 407 251 341 240 263 c 0
EndSplineSet
EndChar

StartChar: j
Encoding: 106 106 29
Width: 308
VWidth: 0
Flags: HW
LayerCount: 2
Fore
SplineSet
3 -107 m 1xf0
 1 -239 l 1
 -65 -239 -101 -202 -101 -202 c 1
 -83 -78 l 1
 -83 -78 -53 -107 3 -107 c 1xf0
3 -107 m 1
 48 -107 76 -85 85 -24 c 1
 219 -48 l 1xf4
 200 -182 105 -239 1 -239 c 1
 3 -107 l 1
175 727 m 0xf8
 182 775 225 812 273 812 c 0
 321 812 354 775 347 727 c 0
 340 679 297 641 249 641 c 0
 201 641 168 679 175 727 c 0xf8
82 -48 m 1xf4
 163 526 l 1
 300 526 l 1
 219 -48 l 1
 82 -48 l 1xf4
EndSplineSet
EndChar

StartChar: L
Encoding: 76 76 30
Width: 579
VWidth: 0
Flags: HW
LayerCount: 2
Fore
SplineSet
190 0 m 1xd0
 209 131 l 5
 588 131 l 5
 570 0 l 1
 190 0 l 1xd0
66 0 m 1xe0
 169 730 l 1
 305 730 l 1xe0
 202 0 l 1xd0
 66 0 l 1xe0
EndSplineSet
EndChar

StartChar: D
Encoding: 68 68 31
Width: 749
VWidth: 0
Flags: W
HStem: 0 136<210 463.964> 594 136<305 520.811>
LayerCount: 2
Fore
SplineSet
293 730 m 1
 437 730 l 1
 418 594 l 1
 274 594 l 1
 293 730 l 1
190 0 m 1
 210 136 l 1
 354 136 l 1
 334 0 l 1
 190 0 l 1
66 0 m 1
 169 730 l 1
 305 730 l 1
 202 0 l 1
 66 0 l 1
418 594 m 1
 437 730 l 1
 645 730 792 574 763 366 c 0
 734 158 542 0 334 0 c 1
 354 136 l 1
 496 136 601 222 621 366 c 4
 641 510 560 594 418 594 c 1
EndSplineSet
EndChar

StartChar: R
Encoding: 82 82 32
Width: 641
VWidth: 0
Flags: HW
LayerCount: 2
Fore
SplineSet
446 730 m 1xd1
 584 730 660 628 641 490 c 0
 622 352 516 244 378 244 c 1
 384 375 l 1
 448 375 495 421 505 490 c 0
 515 559 491 599 416 599 c 1
 446 730 l 1xd1
198 244 m 1xd5
 216 375 l 1
 384 375 l 1
 378 244 l 1
 198 244 l 1xd5
265 599 m 1x93
 283 730 l 1
 446 730 l 1
 416 599 l 1
 265 599 l 1x93
442 0 m 5
 263 324 l 5
 424 324 l 5xb1
 604 0 l 5
 442 0 l 5
66 0 m 1x99
 169 730 l 1x99
 305 730 l 1x93
 202 0 l 1
 66 0 l 1x99
EndSplineSet
EndChar

StartChar: V
Encoding: 86 86 33
Width: 668
VWidth: 0
Flags: HW
LayerCount: 2
Fore
SplineSet
761 730 m 1
 330 -27 l 1
 296 146 l 1
 614 730 l 1
 761 730 l 1
259 730 m 1
 413 142 l 5
 330 -27 l 1
 112 730 l 1
 259 730 l 1
EndSplineSet
EndChar

StartChar: f
Encoding: 102 102 34
Width: 400
VWidth: 0
Flags: HW
LayerCount: 2
Fore
SplineSet
75 395 m 1
 93 526 l 1
 458 526 l 1
 440 395 l 1
 75 395 l 1
109 0 m 1
 209 715 l 5
 343 692 l 5
 246 0 l 1
 109 0 l 1
427 775 m 5
 427 906 l 5
 493 906 529 870 529 870 c 5
 512 746 l 5
 512 746 483 775 427 775 c 5
427 775 m 5
 382 775 352 753 343 692 c 5
 209 715 l 5
 228 849 323 906 427 906 c 5
 427 775 l 5
EndSplineSet
EndChar

StartChar: r
Encoding: 114 114 35
Width: 488
VWidth: 0
Flags: HW
LayerCount: 2
Fore
SplineSet
535 479 m 1xc8
 477 361 l 5
 477 361 451 407 374 407 c 4
 292 407 251 342 237 239 c 5xd0
 199 287 l 1
 216 409 264 538 392 538 c 0
 498 538 535 479 535 479 c 1xc8
277 526 m 1xb0
 204 0 l 1
 66 0 l 1
 140 526 l 1
 277 526 l 1xb0
EndSplineSet
EndChar

StartChar: g
Encoding: 103 103 36
Width: 651
VWidth: 0
Flags: HW
LayerCount: 2
Fore
SplineSet
415 -12 m 1xd3
 553 -12 l 1
 532 -163 432 -287 251 -287 c 0
 110 -287 40 -215 23 -127 c 1
 152 -75 l 1
 166 -125 193 -156 270 -156 c 0
 382 -156 404 -90 415 -12 c 1xd3
553 -12 m 5
 415 -12 l 5
 490 526 l 1
 628 526 l 1xd7
 553 -12 l 5
456 281 m 0
 466 354 424 407 349 407 c 0x9b
 274 407 215 354 205 281 c 0
 195 208 250 156 313 156 c 0
 388 156 446 208 456 281 c 0
512 281 m 0x9a80
 494 153 434 24 283 24 c 0
 143 24 47 130 68 281 c 0
 89 432 215 538 355 538 c 0
 506 538 530 409 512 281 c 0x9a80
EndSplineSet
EndChar

StartChar: period
Encoding: 46 46 37
Width: 299
VWidth: 0
Flags: HW
LayerCount: 2
Fore
SplineSet
82 67 m 4
 88 110 128 145 171 145 c 4
 214 145 243 110 237 67 c 4
 231 24 192 -11 149 -11 c 4
 106 -11 76 24 82 67 c 4
EndSplineSet
EndChar

StartChar: s
Encoding: 115 115 38
Width: 494
VWidth: 0
Flags: HW
LayerCount: 2
Fore
SplineSet
105 377 m 1
 120 481 215 538 331 538 c 0
 421 538 497 477 497 477 c 1
 426 357 l 1
 426 357 388 410 307 410 c 0
 267 410 247 396 245 381 c 1
 105 377 l 1
470 167 m 5
 452 39 364 -12 248 -12 c 0
 110 -12 40 84 40 84 c 1
 121 198 l 1
 121 198 186 118 260 118 c 0
 314 118 328 137 331 156 c 1
 470 167 l 5
267 202 m 0
 193 215 88 259 105 377 c 1
 245 381 l 1
 243 368 242 352 305 338 c 0
 387 320 487 290 470 167 c 5
 331 156 l 1
 333 168 330 191 267 202 c 0
EndSplineSet
EndChar

StartChar: k
Encoding: 107 107 39
Width: 570
VWidth: 0
Flags: HW
LayerCount: 2
Fore
SplineSet
364 0 m 1
 196 287 l 1
 381 287 l 1
 550 0 l 1
 364 0 l 1
208 287 m 1
 420 526 l 1
 598 526 l 1
 381 287 l 1
 208 287 l 1
66 0 m 1
 192 894 l 5
 329 894 l 5
 204 0 l 1
 66 0 l 1
EndSplineSet
EndChar

StartChar: v
Encoding: 118 118 40
Width: 558
VWidth: 0
Flags: HW
LayerCount: 2
Fore
SplineSet
276 -30 m 1
 269 124 l 1
 239 124 l 5
 480 526 l 5
 628 526 l 1
 276 -30 l 1
276 -30 m 1
 79 526 l 1
 227 526 l 1
 355 127 l 1
 325 127 l 1
 276 -30 l 1
EndSplineSet
EndChar

StartChar: w
Encoding: 119 119 41
Width: 815
VWidth: 0
Flags: HW
LayerCount: 2
Fore
SplineSet
583 -30 m 1
 575 113 l 1
 521 113 l 1
 726 526 l 1
 874 526 l 1
 583 -30 l 1
583 -30 m 1
 403 414 l 5
 427 444 l 1
 482 546 l 1
 650 115 l 1
 627 91 l 1
 583 -30 l 1
218 -30 m 1
 219 88 l 1
 190 113 l 1
 482 546 l 1
 500 432 l 1
 516 402 l 1
 218 -30 l 1
218 -30 m 1
 83 526 l 1
 231 526 l 1
 320 115 l 1
 266 115 l 1
 218 -30 l 1
EndSplineSet
EndChar

StartChar: W
Encoding: 87 87 42
Width: 981
VWidth: 0
Flags: HW
LayerCount: 2
Fore
SplineSet
593 730 m 5
 766 167 l 5
 698 -27 l 5
 523 547 l 5
 593 730 l 5
1074 730 m 5
 698 -27 l 5
 654 137 l 5
 933 730 l 5
 1074 730 l 5
254 730 m 5
 367 134 l 5
 276 -27 l 5
 112 730 l 5
 254 730 l 5
617 544 m 5
 276 -27 l 5
 263 170 l 5
 593 730 l 5
 617 544 l 5
EndSplineSet
EndChar

StartChar: x
Encoding: 120 120 43
Width: 531
VWidth: 0
Flags: W
HStem: 0 21G<0 170.646 365.068 531> 506 20G<74 238.932 433.354 605>
LayerCount: 2
Fore
SplineSet
288 161 m 5
 154 0 l 1
 0 0 l 1
 228 263 l 1
 74 526 l 1
 228 526 l 1
 316 365 l 1
 450 526 l 1
 605 526 l 1
 375 263 l 1
 531 0 l 1
 376 0 l 1
 288 161 l 5
EndSplineSet
EndChar

StartChar: z
Encoding: 122 122 44
Width: 502
VWidth: 0
Flags: HW
LayerCount: 2
Fore
SplineSet
94 395 m 1
 112 526 l 1
 531 526 l 1
 454 395 l 1
 94 395 l 1
38 0 m 1
 117 132 l 1
 476 132 l 1
 458 0 l 1
 38 0 l 1
10 0 m 1
 413 526 l 5
 561 526 l 1
 158 0 l 1
 10 0 l 1
EndSplineSet
EndChar

StartChar: P
Encoding: 80 80 45
Width: 569
VWidth: 0
Flags: HW
LayerCount: 2
Fore
SplineSet
414 730 m 1xe2
 552 730 628 628 609 490 c 0
 590 352 484 244 346 244 c 1
 352 375 l 1
 421 375 462 415 473 490 c 0
 484 565 453 599 384 599 c 1
 414 730 l 1xe2
198 244 m 1xea
 216 375 l 1
 364 375 l 1
 346 244 l 1
 198 244 l 1xea
66 0 m 1xf2
 169 730 l 1xf2
 305 730 l 1xe6
 202 0 l 1
 66 0 l 1xf2
265 599 m 1xe6
 283 730 l 1
 414 730 l 5
 396 599 l 5
 265 599 l 1xe6
EndSplineSet
EndChar

StartChar: exclam
Encoding: 33 33 46
Width: 299
VWidth: 0
Flags: HW
LayerCount: 2
Fore
SplineSet
82 67 m 4xc0
 88 110 128 145 171 145 c 4
 214 145 243 110 237 67 c 4
 231 24 192 -11 149 -11 c 4
 106 -11 76 24 82 67 c 4xc0
139 281 m 5x90
 197 811 l 5
 331 811 l 5xa0
 240 281 l 5
 139 281 l 5x90
EndSplineSet
EndChar

StartChar: B
Encoding: 66 66 47
Width: 616
VWidth: 0
Flags: HW
LayerCount: 2
Fore
SplineSet
423 730 m 1xde
 542 730 618 647 603 539 c 0
 589 442 464 330 367 330 c 1xbe
 382 440 l 1
 427 440 462 483 468 528 c 0
 474 573 450 600 405 600 c 1
 423 730 l 1xde
275 600 m 1
 293 730 l 1
 423 730 l 1
 405 600 l 1
 275 600 l 1
234 309 m 1xdc
 252 440 l 1
 415 440 l 1
 397 309 l 1
 234 309 l 1xdc
66 0 m 1
 169 730 l 1
 305 730 l 1
 202 0 l 1
 66 0 l 1
190 0 m 1
 209 131 l 1
 372 131 l 1
 354 0 l 1
 190 0 l 1
409 395 m 1xbd
 512 395 615 334 598 211 c 4
 582 97 478 0 354 0 c 1
 372 131 l 1
 428 131 459 166 465 211 c 0
 471 256 453 309 397 309 c 1xdd
 409 395 l 1xbd
EndSplineSet
EndChar

StartChar: S
Encoding: 83 83 48
Width: 563
VWidth: 0
Flags: HW
LayerCount: 2
Fore
SplineSet
157 535 m 1xdc
 172 645 286 741 413 741 c 0
 543 741 602 664 602 664 c 1
 537 554 l 1
 537 554 482 608 399 608 c 0
 346 608 304 573 299 534 c 1xbc
 157 535 l 1xdc
553 199 m 5
 538 89 427 -11 290 -11 c 0
 133 -11 52 98 52 98 c 1
 134 205 l 1
 134 205 205 128 310 128 c 0
 370 128 407 161 414 211 c 1
 553 199 l 5
335 303 m 0
 227 322 138 401 157 535 c 1xdc
 299 534 l 1
 292 487 317 450 376 438 c 0
 491 415 572 337 553 199 c 5
 414 211 l 1
 419 250 413 289 335 303 c 0
EndSplineSet
EndChar

StartChar: Q
Encoding: 81 81 49
Width: 869
VWidth: 0
Flags: HW
LayerCount: 2
Fore
SplineSet
222 366 m 0xb8
 202 226 297 126 433 126 c 0
 569 126 682 226 702 366 c 0
 722 506 627 606 491 606 c 0
 355 606 242 506 222 366 c 0xb8
674 0 m 5x78
 426 303 l 5
 593 303 l 1
 840 0 l 1
 674 0 l 5x78
80 366 m 0
 109 574 302 742 510 742 c 0
 718 742 862 574 833 366 c 0
 804 158 612 -11 404 -11 c 0xb8
 196 -11 51 158 80 366 c 0
EndSplineSet
EndChar

StartChar: Z
Encoding: 90 90 50
Width: 645
VWidth: 0
Flags: HW
LayerCount: 2
Fore
SplineSet
121 599 m 1
 139 730 l 1
 702 730 l 1
 630 599 l 1
 121 599 l 1
36 0 m 1
 109 131 l 1
 618 131 l 1
 600 0 l 1
 36 0 l 1
10 0 m 1
 569 730 l 5
 729 730 l 1
 170 0 l 1
 10 0 l 1
EndSplineSet
EndChar

StartChar: U
Encoding: 85 85 51
Width: 725
VWidth: 0
Flags: W
HStem: -11 130<305.964 458.637> 710 20G<166.206 305 621.213 761>
DStem2: 106 279 243 285 0.138346 0.990384<-48.9225 455.379> 562 285 698 279 0.138346 0.990384<-84.0307 449.298>
LayerCount: 2
Fore
SplineSet
562 285 m 5
 624 730 l 1
 761 730 l 1
 698 279 l 1
 562 285 l 5
106 279 m 1
 169 730 l 1
 305 730 l 1
 243 285 l 5
 106 279 l 1
698 279 m 1
 673 98 509 -11 361 -11 c 0
 213 -11 81 98 106 279 c 1
 243 285 l 5
 232 204 282 119 379 119 c 4
 476 119 551 204 562 285 c 5
 698 279 l 1
EndSplineSet
EndChar

StartChar: Y
Encoding: 89 89 52
Width: 619
VWidth: 0
Flags: W
HStem: 0 21G<242 378.857> 710 20G<112 265.814 552.508 712>
LayerCount: 2
Fore
SplineSet
242 0 m 1
 300 413 l 1
 435 413 l 1
 376 0 l 1
 242 0 l 1
333 175 m 5
 112 730 l 1
 259 730 l 1
 367 413 l 1
 565 730 l 1
 712 730 l 1
 333 175 l 5
EndSplineSet
EndChar

StartChar: X
Encoding: 88 88 53
Width: 659
VWidth: 0
Flags: HW
LayerCount: 2
Fore
SplineSet
650 0 m 5
 500 0 l 5
 132 730 l 1
 281 730 l 1
 650 0 l 5
732 730 m 5
 158 0 l 1
 10 0 l 1
 583 730 l 5
 732 730 l 5
EndSplineSet
EndChar

StartChar: K
Encoding: 75 75 54
Width: 645
VWidth: 0
Flags: HW
LayerCount: 2
Fore
SplineSet
245 351 m 1
 579 730 l 1
 748 730 l 1
 414 351 l 5
 245 351 l 1
471 0 m 1
 240 351 l 1
 414 351 l 5
 645 0 l 1
 471 0 l 1
76 0 m 1
 179 730 l 1
 315 730 l 1
 212 0 l 1
 76 0 l 1
EndSplineSet
EndChar

StartChar: comma
Encoding: 44 44 55
Width: 302
VWidth: 0
Flags: W
HStem: -110 212
VStem: 5 239
LayerCount: 2
Fore
SplineSet
110 102 m 5
 244 102 l 5
 106 -110 l 5
 5 -110 l 5
 110 102 l 5
EndSplineSet
EndChar

StartChar: quotedbl
Encoding: 34 34 56
Width: 261
VWidth: 0
Flags: HW
LayerCount: 2
Fore
SplineSet
259 811 m 1
 361 811 l 1
 314 599 l 1
 245 599 l 1
 259 811 l 1
129 811 m 1
 231 811 l 1
 185 599 l 1
 115 599 l 1
 129 811 l 1
EndSplineSet
EndChar

StartChar: quotesingle
Encoding: 39 39 57
Width: 174
VWidth: 0
Flags: HW
LayerCount: 2
Fore
SplineSet
135 811 m 1
 269 811 l 1
 219 599 l 5
 118 599 l 5
 135 811 l 1
EndSplineSet
EndChar

StartChar: colon
Encoding: 58 58 58
Width: 299
VWidth: 0
Flags: HW
LayerCount: 2
Fore
SplineSet
131 420 m 4
 137 463 177 497 220 497 c 4
 263 497 292 463 286 420 c 4
 280 377 241 342 198 342 c 4
 155 342 125 377 131 420 c 4
90 128 m 0
 96 171 136 205 179 205 c 0
 222 205 251 171 245 128 c 0
 239 85 200 50 157 50 c 0
 114 50 84 85 90 128 c 0
EndSplineSet
EndChar

StartChar: semicolon
Encoding: 59 59 59
Width: 302
VWidth: 0
Flags: HW
LayerCount: 2
Fore
SplineSet
119 162 m 1
 253 162 l 1
 115 -50 l 1
 14 -50 l 1
 119 162 l 1
134 420 m 0
 140 463 180 497 223 497 c 0
 266 497 295 463 289 420 c 0
 283 377 244 342 201 342 c 0
 158 342 128 377 134 420 c 0
EndSplineSet
EndChar

StartChar: dollar
Encoding: 36 36 60
Width: 568
VWidth: 0
Flags: HW
LayerCount: 2
Fore
SplineSet
162 546 m 1xde
 177 656 289 741 416 741 c 0
 546 741 605 664 605 664 c 1
 541 566 l 1
 541 566 487 620 404 620 c 0
 341 620 296 578 291 539 c 1xbe
 162 546 l 1xde
554 189 m 1
 539 79 430 -11 293 -11 c 0
 136 -11 55 98 55 98 c 1
 135 193 l 1
 135 193 206 116 311 116 c 0
 381 116 421 155 428 205 c 1
 554 189 l 1
338 309 m 0
 230 328 143 412 162 546 c 1xde
 291 539 l 1
 285 496 309 446 378 432 c 0
 493 409 573 327 554 189 c 1
 428 205 l 1
 433 244 426 293 338 309 c 0
253 -108 m 1
 382 811 l 1
 453 811 l 1
 324 -108 l 1
 253 -108 l 1
EndSplineSet
EndChar

StartChar: zero
Encoding: 48 48 61
Width: 596
VWidth: 0
Flags: HW
LayerCount: 2
Fore
SplineSet
212 366 m 4
 199 276 194 114 314 114 c 4
 434 114 476 276 489 366 c 4
 502 456 505 618 385 618 c 4
 265 618 225 456 212 366 c 4
82 366 m 0
 108 552 217 742 403 742 c 0
 589 742 645 552 619 366 c 0
 593 180 483 -11 297 -11 c 0
 111 -11 56 180 82 366 c 0
EndSplineSet
EndChar

StartChar: one
Encoding: 49 49 62
Width: 583
VWidth: 0
Flags: HW
LayerCount: 2
Fore
SplineSet
225 508 m 1
 242 627 l 1
 519 746 l 1
 498 600 l 1
 225 508 l 1
289 0 m 1
 379 638 l 1
 519 746 l 1
 414 0 l 1
 289 0 l 1
EndSplineSet
EndChar

StartChar: two
Encoding: 50 50 63
Width: 596
VWidth: 1081
Flags: HW
LayerCount: 2
Fore
SplineSet
171 634 m 2
 172 636 284 742 410 742 c 1
 551 740 648 667 626 512 c 0
 614 429 538 346 495 301 c 2
 318 121 l 1
 593 121 l 1
 576 0 l 1
 44 0 l 1
 421 383 l 2
 461 424 489 460 496 509 c 0
 507 590 467 612 392 612 c 0
 275 612 160 484 145 469 c 1
 167 630 l 1
 171 634 l 2
EndSplineSet
EndChar

StartChar: percent
Encoding: 37 37 64
Width: 1126
VWidth: 0
Flags: HW
LayerCount: 2
Fore
SplineSet
752 188 m 0xa3c0
 744 134 779 93 830 93 c 0
 881 93 926 134 934 188 c 0
 942 242 907 283 856 283 c 0
 805 283 760 242 752 188 c 0xa3c0
288 542 m 0
 280 488 314 447 365 447 c 0
 416 447 462 488 470 542 c 0
 478 596 443 637 392 637 c 0x1bc0
 341 637 296 596 288 542 c 0
644 188 m 0
 659 298 761 387 871 387 c 0
 981 387 1057 298 1042 188 c 0
 1027 78 925 -11 815 -11 c 0xa3c0
 705 -11 629 78 644 188 c 0
222 0 m 5x47c0
 865 730 l 1
 1000 730 l 1
 357 0 l 5
 222 0 l 5x47c0
180 542 m 0
 195 652 297 741 407 741 c 0
 517 741 593 652 578 542 c 0
 563 432 461 343 351 343 c 0x1bc0
 241 343 165 432 180 542 c 0
EndSplineSet
EndChar

StartChar: three
Encoding: 51 51 65
Width: 591
VWidth: 0
Flags: HW
LayerCount: 2
Fore
SplineSet
166 611 m 1
 182 730 l 1
 614 730 l 1
 458 611 l 1
 166 611 l 1
302 465 m 1
 448 465 541 357 524 233 c 0
 505 98 392 -11 235 -11 c 1
 252 107 l 5
 324 107 388 144 401 233 c 4
 413 316 348 358 254 358 c 5
 302 465 l 1
189 358 m 1
 485 730 l 1
 614 730 l 1
 319 358 l 1
 189 358 l 1
235 -12 m 1
 186 -12 128 -1 88 21 c 1
 107 155 l 5
 139 122 201 107 252 107 c 5
 235 -12 l 1
EndSplineSet
EndChar

StartChar: four
Encoding: 52 52 66
Width: 596
VWidth: 0
Flags: HW
LayerCount: 2
Fore
SplineSet
51 141 m 1
 197 260 l 1
 603 260 l 1
 587 141 l 1
 51 141 l 1
372 0 m 1
 454 587 l 1
 585 631 l 1
 496 0 l 1
 372 0 l 1
580 599 m 1
 170 141 l 1
 51 141 l 1
 602 757 l 1
 580 599 l 1
EndSplineSet
EndChar

StartChar: five
Encoding: 53 53 67
Width: 592
VWidth: 0
Flags: HW
LayerCount: 2
Fore
SplineSet
245 730 m 1
 368 730 l 1
 266 389 l 1
 169 328 l 5
 143 389 l 1
 245 730 l 1
229 611 m 1
 245 730 l 1
 585 730 l 1
 569 611 l 1
 229 611 l 1
174 309 m 5
 144 388 l 1
 144 389 l 1
 144 389 242 443 334 443 c 0
 493 443 570 353 551 216 c 0
 532 79 408 -11 249 -11 c 0
 189 -11 116 6 76 28 c 1
 94 161 l 1
 126 128 204 108 266 108 c 4
 350 108 417 145 427 216 c 4
 437 287 383 335 309 335 c 4
 260 335 210 325 174 309 c 5
EndSplineSet
EndChar

StartChar: six
Encoding: 54 54 68
Width: 592
VWidth: 0
Flags: HW
LayerCount: 2
Fore
SplineSet
394 730 m 5
 533 730 l 5
 279 321 l 5
 141 322 l 5
 394 730 l 5
219 216 m 4
 210 154 250 108 312 108 c 4
 374 108 427 154 436 216 c 4
 445 278 404 324 342 324 c 4
 280 324 226 267 219 216 c 4
141 322 m 6
 394 730 l 5
 506 730 l 5
 309 412 l 5
 332 422 360 433 390 433 c 4
 483 433 572 341 554 216 c 4
 536 91 420 -11 295 -11 c 4
 170 -11 82 91 100 216 c 4
 105 254 120 287 141 322 c 6
EndSplineSet
EndChar

StartChar: nine
Encoding: 57 57 69
Width: 592
VWidth: 0
Flags: HW
LayerCount: 2
Fore
SplineSet
302 0 m 5
 162 0 l 5
 417 409 l 5
 556 408 l 5
 302 0 l 5
478 514 m 4
 487 576 446 622 384 622 c 4
 322 622 270 576 261 514 c 4
 252 452 291 406 353 406 c 4
 415 406 471 463 478 514 c 4
556 408 m 6
 302 0 l 5
 189 0 l 5
 387 318 l 5
 364 308 336 297 306 297 c 4
 213 297 124 389 142 514 c 4
 160 639 275 741 400 741 c 4
 525 741 614 639 596 514 c 4
 591 476 577 443 556 408 c 6
EndSplineSet
EndChar

StartChar: eight
Encoding: 56 56 70
Width: 592
VWidth: 0
Flags: HW
LayerCount: 2
Fore
SplineSet
182 548 m 0xb6
 197 654 295 745 401 745 c 0
 507 745 580 654 565 548 c 0
 551 447 432 368 348 368 c 0
 264 368 168 447 182 548 c 0xb6
296 548 m 4
 290 504 318 465 362 465 c 4xd6
 406 465 445 504 451 548 c 0
 457 592 429 632 385 632 c 0
 341 632 302 592 296 548 c 4
101 227 m 0xb9
 118 347 243 438 358 438 c 0
 473 438 573 342 556 222 c 0
 538 97 420 -11 295 -11 c 0
 170 -11 83 102 101 227 c 0xb9
220 222 m 0
 211 160 250 114 312 114 c 0
 374 114 428 160 437 222 c 0
 446 284 405 330 343 330 c 0xd9
 281 330 229 284 220 222 c 0
EndSplineSet
EndChar

StartChar: seven
Encoding: 55 55 71
Width: 593
VWidth: 0
Flags: HW
LayerCount: 2
Fore
SplineSet
152 611 m 1
 169 730 l 1
 629 730 l 1
 547 611 l 1
 152 611 l 1
116 0 m 5
 499 730 l 1
 629 730 l 1
 246 0 l 5
 116 0 l 5
EndSplineSet
EndChar

StartChar: numbersign
Encoding: 35 35 72
Width: 703
VWidth: 0
Flags: HW
LayerCount: 2
Fore
SplineSet
19 184 m 1
 64 303 l 1
 193 303 l 1
 241 433 l 1
 112 433 l 1
 156 552 l 1
 286 552 l 1
 360 752 l 1
 486 752 l 1
 411 552 l 1
 540 552 l 1
 614 752 l 1
 740 752 l 1
 665 552 l 1
 795 552 l 1
 751 433 l 1
 621 433 l 1
 573 303 l 1
 703 303 l 1
 659 184 l 1
 529 184 l 1
 452 -22 l 1
 327 -22 l 1
 403 184 l 1
 275 184 l 1
 198 -22 l 1
 73 -22 l 1
 149 184 l 1
 19 184 l 1
448 303 m 1
 496 433 l 1
 367 433 l 1
 319 303 l 1
 448 303 l 1
EndSplineSet
EndChar

StartChar: parenleft
Encoding: 40 40 73
Width: 247
VWidth: 0
Flags: HW
LayerCount: 2
Fore
SplineSet
108 -194 m 5
 6 81 71 544 249 809 c 1
 351 804 l 1
 203 486 155 136 212 -188 c 5
 108 -194 l 5
EndSplineSet
EndChar

StartChar: parenright
Encoding: 41 41 74
Width: 246
VWidth: 0
Flags: HW
LayerCount: 2
Fore
SplineSet
227 809 m 5
 329 534 264 71 86 -194 c 1
 -16 -188 l 1
 132 130 180 480 123 804 c 5
 227 809 l 5
EndSplineSet
EndChar

StartChar: asterisk
Encoding: 42 42 75
Width: 393
VWidth: 0
Flags: HW
LayerCount: 2
Fore
SplineSet
261 884 m 1
 380 884 l 1
 355 773 l 1
 465 818 l 1
 485 705 l 1
 373 680 l 1
 436 596 l 1
 330 526 l 1
 286 621 l 1
 216 524 l 1
 130 594 l 1
 214 678 l 1
 107 702 l 1
 160 815 l 1
 257 772 l 1
 261 884 l 1
EndSplineSet
EndChar

StartChar: ampersand
Encoding: 38 38 76
Width: 864
VWidth: 0
Flags: HW
LayerCount: 2
Fore
SplineSet
669 279 m 1xd8
 775 396 l 1
 868 329 l 1
 753 201 l 1
 751 199 747 195 746 193 c 1
 810 120 l 1
 786 -50 l 1
 651 102 l 1
 559 25 457 -32 334 -32 c 0
 195 -32 105 76 122 196 c 0xe8
 135 287 207 361 298 417 c 1
 307 423 335 438 356 449 c 1
 319 497 289 554 301 639 c 0
 313 723 393 833 537 833 c 0
 662 833 724 745 710 642 c 0
 696 540 603 476 531 429 c 1
 669 279 l 1xd8
426 364 m 1
 408 352 382 335 361 323 c 1
 296 286 258 239 252 196 c 0
 244 139 297 94 351 94 c 0
 437 94 506 127 577 187 c 1
 426 364 l 1
463 513 m 1
 540 566 582 606 587 642 c 0
 594 695 571 714 520 714 c 0
 453 714 429 666 425 639 c 0xd8
 418 588 427 559 463 513 c 1
EndSplineSet
EndChar

StartChar: plus
Encoding: 43 43 77
Width: 534
VWidth: 0
Flags: HW
LayerCount: 2
Fore
SplineSet
263 406 m 1
 288 583 l 1
 411 583 l 5
 386 406 l 5
 541 406 l 1
 525 288 l 1
 370 288 l 5
 344 108 l 5
 221 108 l 1
 247 288 l 1
 92 288 l 1
 108 406 l 1
 263 406 l 1
EndSplineSet
EndChar

StartChar: equal
Encoding: 61 61 78
Width: 534
VWidth: 0
Flags: HW
LayerCount: 2
Fore
SplineSet
528 308 m 1
 511 190 l 1
 78 190 l 1
 95 308 l 1
 528 308 l 1
555 503 m 5
 538 385 l 5
 105 385 l 5
 122 503 l 5
 555 503 l 5
EndSplineSet
EndChar

StartChar: hyphen
Encoding: 45 45 79
Width: 421
VWidth: 0
Flags: HW
LayerCount: 2
Fore
SplineSet
376 406 m 5
 359 288 l 1
 143 288 l 1
 160 406 l 5
 376 406 l 5
EndSplineSet
EndChar

StartChar: at
Encoding: 64 64 80
Width: 922
VWidth: 0
Flags: W
HStem: -216 75<328.484 411> -15 76<721.502 797.085> -11 119<428.308 548.79> 125 55<650.451 707> 368 119<478.321 606.798> 616 76<479.005 712.779>
VStem: 699 81<412.507 443> 869 70<166.672 463.762>
LayerCount: 2
Fore
SplineSet
757 61 m 1xdf
 740 -15 l 1
 657 -15 626 59 654 180 c 1
 720 180 l 1
 705 114 709 61 757 61 c 1xdf
757 61 m 1
 805 61 846 140 869 238 c 1
 939 238 l 1
 901 74 823 -15 740 -15 c 1
 757 61 l 1
707 125 m 1
 626 125 l 1
 699 443 l 1
 780 443 l 1
 707 125 l 1
633 238 m 0
 649 309 615 368 546 368 c 0
 477 368 417 309 401 238 c 0
 385 167 417 108 486 108 c 0xbf
 555 108 617 167 633 238 c 0
710 238 m 0
 678 101 586 -11 459 -11 c 0
 332 -11 254 101 286 238 c 0
 318 375 447 487 574 487 c 0
 701 487 742 375 710 238 c 0
94 268 m 4
 152 519 388 692 621 692 c 0
 854 692 992 467 939 238 c 1
 869 238 l 1
 917 447 798 616 604 616 c 0
 410 616 213 477 165 268 c 4
 117 59 235 -141 429 -141 c 1
 411 -216 l 1
 178 -216 36 17 94 268 c 4
EndSplineSet
EndChar

StartChar: slash
Encoding: 47 47 81
Width: 459
VWidth: 0
Flags: HW
LayerCount: 2
Fore
SplineSet
-24 -107 m 5
 452 837 l 1
 587 837 l 1
 111 -107 l 5
 -24 -107 l 5
EndSplineSet
EndChar

StartChar: backslash
Encoding: 92 92 82
Width: 459
VWidth: 0
Flags: HW
LayerCount: 2
Fore
SplineSet
109 837 m 1
 244 837 l 1
 466 -27 l 5
 331 -27 l 5
 109 837 l 1
EndSplineSet
EndChar

StartChar: question
Encoding: 63 63 83
Width: 502
VWidth: 0
Flags: HW
LayerCount: 2
Fore
SplineSet
155 67 m 0xf4
 161 110 201 145 244 145 c 0
 287 145 317 110 311 67 c 0
 305 24 265 -11 222 -11 c 0
 179 -11 149 24 155 67 c 0xf4
416 562 m 4
 428 644 385 701 311 701 c 4
 260 701 206 688 164 655 c 1
 183 789 l 1
 229 811 279 822 328 822 c 0
 465 822 559 699 540 562 c 0
 521 425 392 303 255 303 c 0
 239 303 225 308 225 308 c 1
 203 427 l 1
 203 427 236 422 272 422 c 0
 346 422 404 480 416 562 c 4
192 222 m 5xec
 203 427 l 1
 265 406 l 1
 344 425 l 1
 305 222 l 5
 192 222 l 5xec
EndSplineSet
EndChar

StartChar: greater
Encoding: 62 62 84
Width: 536
VWidth: 0
Flags: HW
LayerCount: 2
Fore
SplineSet
111 427 m 1
 128 545 l 1
 560 346 l 1
 422 305 l 5
 111 427 l 1
72 146 m 1
 88 264 l 1
 434 387 l 5
 560 346 l 1
 72 146 l 1
EndSplineSet
EndChar

StartChar: less
Encoding: 60 60 85
Width: 536
VWidth: 0
Flags: HW
LayerCount: 2
Fore
SplineSet
523 265 m 1
 506 147 l 1
 74 346 l 1
 212 387 l 1
 523 265 l 1
562 546 m 1
 546 428 l 1
 201 305 l 5
 74 346 l 1
 562 546 l 1
EndSplineSet
EndChar

StartChar: bracketleft
Encoding: 91 91 86
Width: 242
VWidth: 0
Flags: HW
LayerCount: 2
Fore
SplineSet
168 649 m 1xd0
 183 757 l 1
 421 757 l 1
 410 676 l 1xe0
 168 649 l 1xd0
58 -135 m 1
 73 -27 l 1xd0
 307 -54 l 1
 296 -135 l 1
 58 -135 l 1
58 -135 m 1xe0
 183 757 l 1xe0
 299 735 l 5
 188 -59 l 5xd0
 58 -135 l 1xe0
EndSplineSet
EndChar

StartChar: bracketright
Encoding: 93 93 87
Width: 242
VWidth: 0
Flags: HW
LayerCount: 2
Fore
SplineSet
162 -27 m 5xd0
 147 -135 l 1
 -91 -135 l 1
 -80 -54 l 5xe0
 162 -27 l 5xd0
272 757 m 1
 257 649 l 1xd0
 23 676 l 1
 34 757 l 1
 272 757 l 1
272 757 m 1xe0
 147 -135 l 1xe0
 34 -92 l 1
 143 681 l 1xd0
 272 757 l 1xe0
EndSplineSet
EndChar

StartChar: asciicircum
Encoding: 94 94 88
Width: 346
VWidth: 0
Flags: W
HStem: 626 212
VStem: 118 286
LayerCount: 2
Fore
SplineSet
243 762 m 5
 291 838 l 1
 404 626 l 1
 313 626 l 5
 243 762 l 5
291 838 m 1
 317 762 l 1
 209 626 l 1
 118 626 l 1
 291 838 l 1
EndSplineSet
EndChar

StartChar: underscore
Encoding: 95 95 89
Width: 540
VWidth: 0
Flags: HW
LayerCount: 2
Fore
SplineSet
-25 -178 m 5
 -12 -87 l 5
 529 -87 l 5
 516 -178 l 5
 -25 -178 l 5
EndSplineSet
EndChar

StartChar: bar
Encoding: 124 124 90
Width: 277
VWidth: 0
Flags: HW
LayerCount: 2
Fore
SplineSet
54 -162 m 1
 191 811 l 1
 315 811 l 1
 178 -162 l 1
 54 -162 l 1
EndSplineSet
EndChar

StartChar: braceleft
Encoding: 123 123 91
Width: 245
VWidth: 0
Flags: HW
LayerCount: 2
Fore
SplineSet
148 476 m 5x98
 161 562 l 5
 280 562 l 5
 267 476 l 5
 148 476 l 5x98
267 476 m 5
 248 339 156 281 29 281 c 5xb8
 42 373 l 5xd8
 123 373 135 386 148 476 c 5
 267 476 l 5
40 362 m 5
 167 362 240 283 221 146 c 5
 102 146 l 5
 115 238 106 270 27 270 c 5xd8
 40 362 l 5
258 -135 m 5
 121 -135 71 -78 90 59 c 5
 209 59 l 5
 200 -6 210 -22 273 -22 c 5
 258 -135 l 5
90 59 m 5
 102 146 l 5
 221 146 l 5
 209 59 l 5
 90 59 l 5
161 562 m 5
 180 699 246 757 383 757 c 5
 367 643 l 5
 302 643 289 625 280 562 c 5
 161 562 l 5
EndSplineSet
EndChar

StartChar: braceright
Encoding: 125 125 92
Width: 245
VWidth: 0
Flags: HW
LayerCount: 2
Fore
SplineSet
185 154 m 1x98
 173 67 l 1
 54 67 l 1
 66 154 l 1
 185 154 l 1x98
66 154 m 1
 85 291 178 348 305 348 c 1xb8
 292 256 l 1xd8
 211 256 198 244 185 154 c 1
 66 154 l 1
293 267 m 1
 166 267 93 346 112 483 c 1
 231 483 l 1
 218 391 227 359 306 359 c 1xd8
 293 267 l 1
77 765 m 1
 214 765 263 707 244 570 c 1
 125 570 l 1
 134 635 124 651 61 651 c 1
 77 765 l 1
244 570 m 1
 231 483 l 1
 112 483 l 1
 125 570 l 1
 244 570 l 1
173 67 m 1
 154 -70 89 -128 -48 -128 c 1
 -32 -14 l 1
 33 -14 45 4 54 67 c 1
 173 67 l 1
EndSplineSet
EndChar

StartChar: asciitilde
Encoding: 126 126 93
Width: 531
VWidth: 0
Flags: W
HStem: 234 226
LayerCount: 2
Fore
SplineSet
521 460 m 1
 502 331 l 1
 277 115 337 461 110 234 c 1
 128 362 l 5
 364 578 294 233 521 460 c 1
EndSplineSet
EndChar

StartChar: cedilla
Encoding: 184 184 94
Width: 280
VWidth: 0
Flags: W
HStem: -216 189
VStem: -9 214
LayerCount: 2
Fore
SplineSet
92 -27 m 1
 205 -27 l 1
 71 -216 l 1
 -9 -216 l 1
 92 -27 l 1
EndSplineSet
EndChar

StartChar: grave
Encoding: 96 96 95
Width: 210
VWidth: 0
Flags: W
HStem: 761 212
VStem: 137 181
LayerCount: 2
Fore
SplineSet
137 973 m 1
 283 973 l 1
 318 761 l 1
 296 761 l 1
 137 973 l 1
EndSplineSet
EndChar

StartChar: exclamdown
Encoding: 161 161 96
Width: 278
VWidth: 0
Flags: HW
LayerCount: 2
Fore
SplineSet
311 663 m 0xc0
 305 620 265 585 222 585 c 0
 179 585 149 620 155 663 c 0
 161 706 201 741 244 741 c 0
 287 741 317 706 311 663 c 0xc0
254 449 m 1x90
 195 -81 l 1
 61 -81 l 1xa0
 152 449 l 1
 254 449 l 1x90
EndSplineSet
EndChar

StartChar: cent
Encoding: 162 162 97
Width: 470
VWidth: 0
Flags: HW
LayerCount: 2
Fore
SplineSet
199 238 m 0
 189 167 231 108 305 108 c 0
 356 108 411 123 453 156 c 1
 434 22 l 1
 388 0 337 -11 288 -11 c 0
 151 -11 55 101 74 238 c 0
 93 375 221 487 358 487 c 0
 407 487 455 476 495 454 c 1
 476 320 l 1
 444 353 393 368 342 368 c 0
 268 368 209 309 199 238 c 0
237 -108 m 5
 334 584 l 5
 404 584 l 5
 307 -108 l 5
 237 -108 l 5
EndSplineSet
EndChar

StartChar: sterling
Encoding: 163 163 98
Width: 474
VWidth: 0
Flags: HW
LayerCount: 2
Fore
SplineSet
10 0 m 1
 27 119 l 5
 492 119 l 5
 475 0 l 1
 10 0 l 1
61 357 m 1
 77 476 l 1
 374 476 l 1
 358 357 l 1
 61 357 l 1
80 0 m 1
 166 611 l 1
 290 611 l 1
 204 0 l 1
 80 0 l 1
395 703 m 1
 412 822 l 1
 499 822 545 762 545 762 c 1
 529 650 l 1
 529 650 484 703 395 703 c 1
395 703 m 1
 327 703 300 679 290 611 c 1
 166 611 l 1
 186 756 291 822 412 822 c 1
 395 703 l 1
EndSplineSet
EndChar

StartChar: currency
Encoding: 164 164 99
Width: 583
VWidth: 0
Flags: HW
LayerCount: 2
Fore
SplineSet
202 238 m 0
 192 167 239 108 307 108 c 0
 375 108 440 167 450 238 c 0
 460 309 412 368 344 368 c 0
 276 368 212 309 202 238 c 0
463 65 m 1
 575 -103 l 1
 435 -103 l 5
 323 65 l 5
 463 65 l 1
279 65 m 1
 121 -103 l 1
 -19 -103 l 1
 139 65 l 1
 279 65 l 1
188 411 m 1
 77 579 l 1
 217 579 l 1
 328 411 l 1
 188 411 l 1
372 411 m 1
 531 579 l 1
 671 579 l 1
 512 411 l 1
 372 411 l 1
77 238 m 0
 96 375 224 487 361 487 c 0
 498 487 594 375 575 238 c 0
 556 101 428 -11 291 -11 c 0
 154 -11 58 101 77 238 c 0
EndSplineSet
EndChar

StartChar: yen
Encoding: 165 165 100
Width: 619
VWidth: 0
Flags: HW
LayerCount: 2
Fore
SplineSet
248 0 m 1
 305 403 l 1
 428 403 l 1
 371 0 l 1
 248 0 l 1
335 185 m 1
 113 730 l 1
 248 730 l 1
 366 403 l 1
 578 730 l 1
 713 730 l 1
 335 185 l 1
138 214 m 1
 147 284 l 1
 552 284 l 1
 543 214 l 1
 138 214 l 1
153 322 m 1
 163 393 l 5
 568 393 l 5
 558 322 l 1
 153 322 l 1
EndSplineSet
EndChar

StartChar: brokenbar
Encoding: 166 166 101
Width: 277
VWidth: 0
Flags: HW
LayerCount: 2
Fore
SplineSet
262 433 m 1
 138 433 l 1
 191 811 l 1
 315 811 l 1
 262 433 l 1
231 216 m 1
 178 -162 l 1
 54 -162 l 1
 107 216 l 1
 231 216 l 1
EndSplineSet
EndChar

StartChar: section
Encoding: 167 167 102
Width: 441
VWidth: 0
Flags: HW
LayerCount: 2
Fore
SplineSet
283 311 m 0
 335 311 345 340 349 366 c 0
 354 405 343 425 292 425 c 0
 247 425 223 393 220 371 c 0
 216 346 235 311 283 311 c 0
408 258 m 1
 434 228 447 187 440 136 c 0
 425 27 336 -32 222 -32 c 1
 80 -28 36 61 30 71 c 0
 26 77 l 1
 115 171 l 1
 128 148 l 1
 128 148 168 85 233 85 c 0
 296 85 313 113 316 132 c 0
 321 167 301 194 246 194 c 0
 141 194 82 277 96 378 c 1
 103 421 130 456 161 478 c 1
 129 503 119 550 125 590 c 0
 140 699 226 764 345 764 c 0
 442 764 496 704 501 699 c 0
 507 694 l 1
 443 576 l 1
 424 600 l 0
 424 600 386 648 323 648 c 0
 274 648 256 624 253 605 c 0
 250 581 266 553 319 545 c 0
 404 532 488 482 471 358 c 0
 462 314 438 280 408 258 c 1
EndSplineSet
EndChar

StartChar: dieresis
Encoding: 168 168 103
Width: 478
VWidth: 0
Flags: W
HStem: 861 156<215.742 306.258 436.742 527.046>
VStem: 183 156<893.881 984.119> 404 155<892.365 984.119>
LayerCount: 2
Fore
SplineSet
404 939 m 0
 410 982 450 1017 493 1017 c 0
 536 1017 565 982 559 939 c 0
 553 896 514 861 471 861 c 0
 428 861 398 896 404 939 c 0
183 939 m 0
 189 982 229 1017 272 1017 c 0
 315 1017 345 982 339 939 c 0
 333 896 293 861 250 861 c 0
 207 861 177 896 183 939 c 0
EndSplineSet
EndChar

StartChar: copyright
Encoding: 169 169 104
Width: 835
VWidth: 0
Flags: HW
LayerCount: 2
Fore
SplineSet
369 366 m 0
 360 300 401 250 466 250 c 0
 502 250 538 261 568 281 c 0
 587 295 l 1
 574 200 l 1
 568 197 l 0
 532 178 493 167 454 167 c 0
 344 167 268 256 283 366 c 0
 298 476 400 565 510 565 c 0
 549 565 585 553 615 534 c 0
 620 531 l 1
 607 436 l 1
 592 450 l 0
 568 470 534 481 498 481 c 0
 433 481 378 432 369 366 c 0
191 366 m 0
 169 206 273 81 430 81 c 0
 587 81 727 206 749 366 c 0
 771 526 667 650 510 650 c 0
 353 650 213 526 191 366 c 0
82 366 m 0
 112 580 310 753 524 753 c 0
 738 753 887 580 857 366 c 0
 827 152 629 -22 415 -22 c 0
 201 -22 52 152 82 366 c 0
EndSplineSet
EndChar

StartChar: registered
Encoding: 174 174 105
Width: 835
VWidth: 0
Flags: HW
LayerCount: 2
Fore
SplineSet
82 366 m 0
 112 580 310 753 524 753 c 0
 738 753 887 580 857 366 c 0
 827 152 629 -22 415 -22 c 0
 201 -22 52 152 82 366 c 0
191 366 m 0
 169 206 273 81 430 81 c 0
 587 81 727 206 749 366 c 0
 771 526 667 650 510 650 c 0
 353 650 213 526 191 366 c 0
311 172 m 1
 365 558 l 1
 428 558 l 1
 449 558 l 1
 503 558 l 1
 514 558 l 1
 525 558 l 1
 593 555 655 521 642 427 c 0
 633 361 595 326 549 309 c 1
 616 172 l 1
 523 172 l 1
 462 297 l 1
 412 297 l 1
 395 172 l 1
 311 172 l 1
437 477 m 1
 424 378 l 1
 478 378 l 1
 489 378 l 2
 532 378 553 392 558 427 c 0
 563 462 545 477 502 477 c 2
 491 477 l 1
 437 477 l 1
EndSplineSet
EndChar

StartChar: ordfeminine
Encoding: 170 170 106
Width: 352
VWidth: 0
Flags: HW
LayerCount: 2
Fore
SplineSet
388 730 m 1
 387 719 l 1
 364 562 l 1
 302 562 l 1
 304 575 l 1
 291 566 275 560 258 558 c 1
 258 557 l 1
 247 557 l 1
 237 557 l 1
 183 560 153 587 155 633 c 1
 157 643 l 1
 158 654 l 1
 170 701 212 727 266 730 c 1
 277 730 l 1
 288 730 l 1
 326 730 l 1
 329 750 315 768 279 768 c 0
 255 768 232 763 214 749 c 2
 194 734 l 1
 204 807 l 1
 210 810 l 2
 231 820 255 826 277 827 c 1
 288 827 l 1
 299 827 l 1
 354 824 392 798 389 741 c 1
 390 741 l 1
 388 730 l 1
318 671 m 2
 318 673 l 1
 280 673 l 1
 269 673 l 2
 238 673 218 660 216 643 c 2
 214 626 224 616 255 616 c 0
 283 616 313 638 318 671 c 2
EndSplineSet
EndChar

StartChar: guillemotleft
Encoding: 171 171 107
Width: 536
VWidth: 0
Flags: HW
LayerCount: 2
Fore
SplineSet
517 222 m 5
 506 147 l 5
 269 346 l 5
 347 367 l 5
 517 222 l 5
562 546 m 5
 552 472 l 5
 341 326 l 5
 269 346 l 5
 562 546 l 5
322 222 m 5
 311 147 l 5
 74 346 l 5
 153 367 l 5
 322 222 l 5
367 546 m 5
 357 472 l 5
 147 326 l 5
 74 346 l 5
 367 546 l 5
EndSplineSet
EndChar

StartChar: logicalnot
Encoding: 172 172 108
Width: 696
VWidth: 0
Flags: HW
LayerCount: 2
Fore
SplineSet
690 309 m 1
 667 147 l 1
 591 147 l 1
 614 309 l 1
 690 309 l 1
700 384 m 1
 690 309 l 1
 95 309 l 1
 105 384 l 1
 700 384 l 1
EndSplineSet
EndChar

StartChar: uni00AD
Encoding: 173 173 109
Width: 529
VWidth: 0
Flags: HW
LayerCount: 2
Fore
SplineSet
482 384 m 5
 471 309 l 5
 146 309 l 1
 157 384 l 1
 482 384 l 5
EndSplineSet
EndChar

StartChar: macron
Encoding: 175 175 110
Width: 534
VWidth: 0
Flags: HW
LayerCount: 2
Fore
SplineSet
616 940 m 5
 606 865 l 5
 173 865 l 5
 183 940 l 5
 616 940 l 5
EndSplineSet
EndChar

StartChar: degree
Encoding: 176 176 111
Width: 566
VWidth: 0
Flags: W
HStem: 622 59<336.351 427.6> 811 60<347.587 440.336>
VStem: 264 248
LayerCount: 2
Fore
SplineSet
325 746 m 0
 320 710 344 681 379 681 c 0
 414 681 446 710 451 746 c 0
 456 782 433 811 398 811 c 0
 363 811 330 782 325 746 c 0
264 746 m 0
 274 815 337 871 406 871 c 0
 475 871 522 815 512 746 c 0
 502 677 440 622 371 622 c 0
 302 622 254 677 264 746 c 0
EndSplineSet
EndChar

StartChar: plusminus
Encoding: 177 177 112
Width: 534
VWidth: 0
Flags: HW
LayerCount: 2
Fore
SplineSet
498 96 m 1
 484 0 l 1
 51 0 l 1
 65 96 l 1
 498 96 l 1
274 406 m 1
 299 583 l 1
 400 583 l 1
 375 406 l 1
 541 406 l 1
 529 320 l 1
 363 320 l 1
 341 162 l 1
 240 162 l 1
 262 320 l 1
 96 320 l 1
 108 406 l 1
 274 406 l 1
EndSplineSet
EndChar

StartChar: paragraph
Encoding: 182 182 113
Width: 582
VWidth: 0
Flags: HW
LayerCount: 2
Fore
SplineSet
434 811 m 1xfa
 613 811 l 1
 602 735 l 1
 423 735 l 1
 434 811 l 1xfa
320 0 m 1
 434 811 l 1
 505 811 l 1
 391 0 l 1
 320 0 l 1
461 0 m 1xfc
 575 811 l 1xfa
 645 811 l 1
 531 0 l 1
 461 0 l 1xfc
375 389 m 1
 364 314 l 1
 227 314 132 425 151 562 c 0
 170 699 297 811 434 811 c 1
 423 735 l 1
 328 735 245 655 232 562 c 0
 219 469 280 389 375 389 c 1
EndSplineSet
EndChar

StartChar: periodcentered
Encoding: 183 183 114
Width: 256
VWidth: 0
Flags: HW
LayerCount: 2
Fore
SplineSet
106 316 m 0
 111 353 146 383 183 383 c 0
 220 383 245 353 240 316 c 0
 235 279 201 249 164 249 c 0
 127 249 101 279 106 316 c 0
EndSplineSet
EndChar

StartChar: guillemotright
Encoding: 187 187 115
Width: 536
VWidth: 0
Flags: HW
LayerCount: 2
Fore
SplineSet
92 472 m 5
 102 546 l 5
 339 347 l 5
 261 327 l 5
 92 472 l 5
46 147 m 5
 57 222 l 5
 266 368 l 5
 339 347 l 5
 46 147 l 5
287 472 m 5
 297 546 l 5
 534 347 l 5
 456 327 l 5
 287 472 l 5
241 147 m 5
 252 222 l 5
 461 368 l 5
 534 347 l 5
 241 147 l 5
EndSplineSet
EndChar

StartChar: ordmasculine
Encoding: 186 186 116
Width: 401
VWidth: 0
Flags: HW
LayerCount: 2
Fore
SplineSet
219 719 m 4
 212 672 242 633 290 633 c 4
 338 633 379 672 386 719 c 4
 393 766 362 806 314 806 c 4
 266 806 226 766 219 719 c 4
178 719 m 4
 188 788 251 844 320 844 c 4
 389 844 437 788 427 719 c 4
 417 650 354 595 285 595 c 4
 216 595 168 650 178 719 c 4
EndSplineSet
EndChar

StartChar: questiondown
Encoding: 191 191 117
Width: 502
VWidth: 0
Flags: HW
LayerCount: 2
Fore
SplineSet
442 464 m 4xf8
 437 427 403 397 366 397 c 4
 329 397 303 427 308 464 c 4
 313 501 348 531 385 531 c 4
 422 531 447 501 442 464 c 4xf8
167 -53 m 4
 155 -135 208 -202 292 -202 c 4
 343 -202 397 -190 439 -157 c 5
 423 -269 l 5
 377 -291 327 -302 278 -302 c 4
 141 -302 46 -190 65 -53 c 4
 84 84 211 196 348 196 c 4
 364 196 378 191 378 191 c 5
 392 93 l 5
 392 93 370 98 334 98 c 4
 260 98 179 29 167 -53 c 4
405 320 m 5xf4
 392 93 l 5
 341 114 l 5
 273 95 l 5
 315 320 l 5
 405 320 l 5xf4
EndSplineSet
EndChar

StartChar: acute
Encoding: 180 180 118
Width: 189
VWidth: 0
Flags: W
HStem: 761 212
VStem: 107 219
LayerCount: 2
Fore
SplineSet
326 973 m 1
 107 761 l 1
 202 973 l 1
 326 973 l 1
EndSplineSet
EndChar

StartChar: mu
Encoding: 181 181 119
Width: 593
VWidth: 0
Flags: HW
LayerCount: 2
Fore
SplineSet
608 497 m 1
 535 -22 l 1
 410 -22 l 1
 416 21 l 1
 379 -11 331 -32 273 -32 c 0
 236 -32 206 -24 182 -10 c 1
 152 -227 l 1
 28 -227 l 1
 130 497 l 1
 254 497 l 1
 202 127 l 1
 222 102 251 87 290 87 c 0
 371 87 434 154 446 238 c 0
 483 497 l 1
 608 497 l 1
EndSplineSet
EndChar

StartChar: igrave
Encoding: 236 236 157
Width: 296
VWidth: 0
Flags: HW
LayerCount: 2
Fore
SplineSet
71 0 m 5xe0
 138 476 l 5
 281 476 l 1
 214 0 l 1
 71 0 l 5xe0
EndSplineSet
Refer: 95 96 N 1 0 0 1 -67 -145 2
EndChar

StartChar: iacute
Encoding: 237 237 158
Width: 285
VWidth: 0
Flags: HW
LayerCount: 2
Fore
SplineSet
71 0 m 1
 138 476 l 1
 281 476 l 5
 214 0 l 5
 71 0 l 1
EndSplineSet
Refer: 118 180 N 1 0 0 1 112 -145 2
EndChar

StartChar: icircumflex
Encoding: 238 238 159
Width: 285
VWidth: 0
Flags: HW
LayerCount: 2
Fore
SplineSet
81 0 m 1xe0
 148 476 l 1
 271 476 l 1
 204 0 l 1
 81 0 l 1xe0
EndSplineSet
Refer: 88 94 N 1 0 0 1 -33 -10 2
EndChar

StartChar: idieresis
Encoding: 239 239 160
Width: 285
VWidth: 0
Flags: HW
LayerCount: 2
Fore
SplineSet
81 0 m 1xe8
 148 476 l 1
 271 476 l 1
 204 0 l 1
 81 0 l 1xe8
EndSplineSet
Refer: 103 168 S 1 0 0 1 -138 -277 2
EndChar

StartChar: thorn
Encoding: 254 254 173
Width: 658
VWidth: 0
Flags: HW
LayerCount: 2
Fore
SplineSet
151 -205 m 1
 48 -205 l 1
 191 811 l 1
 294 811 l 1
 239 418 l 1
 282 460 341 487 415 487 c 0
 569 487 670 375 651 238 c 0
 632 101 499 -11 345 -11 c 0
 271 -11 219 16 188 58 c 1
 151 -205 l 1
402 389 m 0
 306 389 225 320 213 238 c 0
 201 156 263 87 359 87 c 0
 455 87 536 156 548 238 c 0
 560 320 498 389 402 389 c 0
EndSplineSet
EndChar

StartChar: AE
Encoding: 198 198 174
Width: 973
VWidth: 0
Flags: HW
LayerCount: 2
Fore
SplineSet
577 611 m 1xd8
 367 314 l 1
 546 314 l 1
 588 611 l 1
 577 611 l 1xd8
530 195 m 1
 286 195 l 1xd8
 147 0 l 1
 14 0 l 1
 510 722 l 1
 511 730 l 1
 515 730 l 1
 519 736 l 1
 525 730 l 1
 605 730 l 1
 734 730 l 1
 1097 730 l 1
 1080 611 l 1
 717 611 l 1
 692 433 l 1
 947 433 l 1
 930 314 l 1
 675 314 l 1xb8
 648 119 l 1
 1011 119 l 1
 994 0 l 1
 631 0 l 1
 586 0 l 1
 502 0 l 1
 530 195 l 1
EndSplineSet
EndChar

StartChar: Oslash
Encoding: 216 216 175
Width: 834
VWidth: 0
Flags: HW
LayerCount: 2
Fore
SplineSet
222 366 m 0
 202 226 308 114 444 114 c 0
 580 114 706 226 726 366 c 0
 746 506 641 618 505 618 c 0
 369 618 242 506 222 366 c 0
253 -108 m 1
 631 811 l 1
 691 811 l 1
 313 -108 l 1
 253 -108 l 1
92 366 m 0
 121 574 314 742 522 742 c 0
 730 742 874 574 845 366 c 0
 816 158 624 -11 416 -11 c 0
 208 -11 63 158 92 366 c 0
EndSplineSet
EndChar

StartChar: oslash
Encoding: 248 248 176
Width: 578
VWidth: 0
Flags: HW
LayerCount: 2
Fore
SplineSet
177 238 m 0
 165 156 218 87 302 87 c 0
 386 87 457 156 469 238 c 0
 481 320 429 389 345 389 c 0
 261 389 189 320 177 238 c 0
74 238 m 0
 93 375 221 487 358 487 c 0
 495 487 591 375 572 238 c 0
 553 101 425 -11 288 -11 c 0
 151 -11 55 101 74 238 c 0
145 -108 m 1
 437 584 l 1
 496 584 l 1
 205 -108 l 1
 145 -108 l 1
EndSplineSet
EndChar

StartChar: Thorn
Encoding: 222 222 177
Width: 589
VWidth: 0
Flags: HW
LayerCount: 2
Fore
SplineSet
180 0 m 1
 77 0 l 1
 180 730 l 1
 283 730 l 1
 266 609 l 1
 373 609 l 1
 385 609 l 1
 397 609 l 1
 544 604 622 512 603 376 c 0
 584 240 480 148 331 143 c 1
 319 143 l 1
 307 143 l 1
 200 143 l 1
 180 0 l 1
360 519 m 1
 253 519 l 1
 213 234 l 1
 320 234 l 1
 332 234 l 2
 426 234 487 285 500 376 c 0
 513 467 466 519 372 519 c 2
 360 519 l 1
EndSplineSet
EndChar

StartChar: divide
Encoding: 247 247 178
Width: 534
VWidth: 0
Flags: HW
CounterMasks: 1 e0
LayerCount: 2
Fore
SplineSet
277 546 m 0
 282 583 316 613 353 613 c 0
 390 613 416 583 411 546 c 0
 406 509 372 479 335 479 c 0
 298 479 272 509 277 546 c 0
221 147 m 0
 226 184 260 214 297 214 c 0
 334 214 360 184 355 147 c 0
 350 110 316 80 279 80 c 0
 242 80 216 110 221 147 c 0
107 395 m 1
 540 395 l 1
 526 298 l 1
 93 298 l 1
 107 395 l 1
EndSplineSet
EndChar

StartChar: multiply
Encoding: 215 215 179
Width: 611
VWidth: 0
Flags: HW
LayerCount: 2
Fore
SplineSet
159 584 m 1
 282 584 l 1
 559 162 l 1
 435 162 l 1
 159 584 l 1
100 162 m 1
 494 584 l 1
 618 584 l 1
 223 162 l 5
 100 162 l 1
EndSplineSet
EndChar

StartChar: ae
Encoding: 230 230 180
Width: 1062
VWidth: 0
Flags: HW
LayerCount: 2
Fore
SplineSet
264 -21 m 0x64
 76 -21 53 91 63 159 c 1
 84 260 169 310 300 314 c 1
 412 314 l 1
 416 347 387 379 310 379 c 0
 258 379 208 369 173 342 c 0
 133 310 l 1
 154 456 l 1
 166 462 l 0
 214 485 255 495 320 497 c 1
 335 497 l 2x6c
 423 494 487 467 511 411 c 1
 570 465 645 497 729 497 c 0
 888 497 981 380 961 237 c 0
 960 228 958 219 958 219 c 0
 953 200 l 1
 535 200 l 1
 545 142 597 97 672 97 c 0
 729 97 790 116 828 152 c 1
 849 172 l 1
 904 76 l 1
 888 63 l 0
 825 11 739 -22 656 -22 c 0xb4
 565 -22 492 18 451 79 c 1
 407 24 342 -21 264 -21 c 0x64
291 200 m 0
 223 200 185 178 181 152 c 0
 177 125 199 108 267 108 c 0
 328 108 388 143 395 196 c 0
 396 200 l 1
 291 200 l 0
829 314 m 1
 809 346 770 368 711 368 c 0x34
 652 368 598 345 568 314 c 1
 829 314 l 1
EndSplineSet
EndChar

StartChar: Eth
Encoding: 208 208 181
Width: 809
VWidth: 0
Flags: HW
LayerCount: 2
Fore
SplineSet
485 308 m 1
 251 308 l 1
 225 124 l 1
 353 124 l 0
 526 124 670 226 690 366 c 0
 710 505 594 606 421 606 c 0
 293 606 l 1
 266 416 l 1
 500 416 l 1
 485 308 l 1
81 0 m 1
 124 308 l 1
 43 308 l 1
 58 416 l 1
 139 416 l 1
 184 730 l 1
 451 730 l 1
 692 725 849 571 820 366 c 0
 791 161 591 5 348 0 c 1
 81 0 l 1
EndSplineSet
EndChar

StartChar: eth
Encoding: 240 240 182
Width: 704
VWidth: 0
Flags: HW
LayerCount: 2
Fore
SplineSet
751 582 m 1
 633 568 l 1
 665 495 682 404 666 291 c 0
 640 104 499 -11 328 -11 c 0
 161 -11 55 100 74 238 c 0
 93 376 231 487 398 487 c 0
 452 487 497 474 531 453 c 1
 520 489 504 522 485 552 c 1
 222 523 l 1
 236 619 l 1
 416 639 l 1
 331 726 242 770 242 770 c 0
 166 811 l 1
 388 811 l 1
 393 809 l 0
 395 808 496 762 578 657 c 1
 764 679 l 1
 751 582 l 1
526 219 m 1
 524 219 l 1
 530 239 l 1
 539 309 477 368 382 368 c 0
 287 368 209 307 199 238 c 0
 189 169 250 108 345 108 c 0
 432 108 506 159 526 219 c 1
EndSplineSet
EndChar

